<mxfile host="app.diagrams.net" agent="Mozilla/5.0 (Windows NT 10.0; Win64; x64) AppleWebKit/537.36 (KHTML, like Gecko) Chrome/127.0.0.0 Safari/537.36 OPR/113.0.0.0" version="24.8.3">
  <diagram id="C5RBs43oDa-KdzZeNtuy" name="Page-1">
    <mxGraphModel dx="2523" dy="1393" grid="1" gridSize="10" guides="1" tooltips="1" connect="1" arrows="1" fold="1" page="1" pageScale="1" pageWidth="827" pageHeight="1169" math="0" shadow="0">
      <root>
        <mxCell id="WIyWlLk6GJQsqaUBKTNV-0" />
        <mxCell id="WIyWlLk6GJQsqaUBKTNV-1" parent="WIyWlLk6GJQsqaUBKTNV-0" />
        <mxCell id="kpIJQVEtNBtJuz8SWJLa-0" value="" style="edgeStyle=orthogonalEdgeStyle;rounded=0;orthogonalLoop=1;jettySize=auto;html=1;" edge="1" parent="WIyWlLk6GJQsqaUBKTNV-1" source="kpIJQVEtNBtJuz8SWJLa-1" target="kpIJQVEtNBtJuz8SWJLa-3">
          <mxGeometry relative="1" as="geometry" />
        </mxCell>
        <mxCell id="kpIJQVEtNBtJuz8SWJLa-1" value="Початок" style="ellipse;whiteSpace=wrap;html=1;" vertex="1" parent="WIyWlLk6GJQsqaUBKTNV-1">
          <mxGeometry x="340" y="100" width="120" height="80" as="geometry" />
        </mxCell>
        <mxCell id="kpIJQVEtNBtJuz8SWJLa-2" value="" style="edgeStyle=orthogonalEdgeStyle;rounded=0;orthogonalLoop=1;jettySize=auto;html=1;" edge="1" parent="WIyWlLk6GJQsqaUBKTNV-1" source="kpIJQVEtNBtJuz8SWJLa-3" target="kpIJQVEtNBtJuz8SWJLa-5">
          <mxGeometry relative="1" as="geometry" />
        </mxCell>
        <mxCell id="kpIJQVEtNBtJuz8SWJLa-3" value="m, n" style="shape=internalStorage;whiteSpace=wrap;html=1;backgroundOutline=1;" vertex="1" parent="WIyWlLk6GJQsqaUBKTNV-1">
          <mxGeometry x="310" y="220" width="180" height="120" as="geometry" />
        </mxCell>
        <mxCell id="kpIJQVEtNBtJuz8SWJLa-4" value="" style="edgeStyle=orthogonalEdgeStyle;rounded=0;orthogonalLoop=1;jettySize=auto;html=1;" edge="1" parent="WIyWlLk6GJQsqaUBKTNV-1" source="kpIJQVEtNBtJuz8SWJLa-5" target="kpIJQVEtNBtJuz8SWJLa-12">
          <mxGeometry relative="1" as="geometry" />
        </mxCell>
        <mxCell id="kpIJQVEtNBtJuz8SWJLa-5" value="&lt;p&gt;&lt;font style=&quot;font-size: 12px;&quot;&gt;Output: &lt;font face=&quot;Consolas, Courier New, monospace&quot;&gt;&lt;span style=&quot;white-space: pre;&quot;&gt;m =&lt;/span&gt;&lt;/font&gt;&lt;/font&gt;&lt;/p&gt;" style="shape=parallelogram;perimeter=parallelogramPerimeter;whiteSpace=wrap;html=1;fixedSize=1;" vertex="1" parent="WIyWlLk6GJQsqaUBKTNV-1">
          <mxGeometry x="340" y="380" width="120" height="60" as="geometry" />
        </mxCell>
        <mxCell id="kpIJQVEtNBtJuz8SWJLa-32" value="" style="edgeStyle=orthogonalEdgeStyle;rounded=0;orthogonalLoop=1;jettySize=auto;html=1;" edge="1" parent="WIyWlLk6GJQsqaUBKTNV-1" source="kpIJQVEtNBtJuz8SWJLa-12" target="kpIJQVEtNBtJuz8SWJLa-30">
          <mxGeometry relative="1" as="geometry" />
        </mxCell>
        <mxCell id="kpIJQVEtNBtJuz8SWJLa-12" value="&lt;p&gt;Input: m&lt;/p&gt;" style="shape=parallelogram;perimeter=parallelogramPerimeter;whiteSpace=wrap;html=1;fixedSize=1;" vertex="1" parent="WIyWlLk6GJQsqaUBKTNV-1">
          <mxGeometry x="340" y="490" width="120" height="60" as="geometry" />
        </mxCell>
        <mxCell id="kpIJQVEtNBtJuz8SWJLa-33" value="" style="edgeStyle=orthogonalEdgeStyle;rounded=0;orthogonalLoop=1;jettySize=auto;html=1;" edge="1" parent="WIyWlLk6GJQsqaUBKTNV-1" source="kpIJQVEtNBtJuz8SWJLa-30" target="kpIJQVEtNBtJuz8SWJLa-31">
          <mxGeometry relative="1" as="geometry" />
        </mxCell>
        <mxCell id="kpIJQVEtNBtJuz8SWJLa-30" value="&lt;p&gt;&lt;font style=&quot;font-size: 12px;&quot;&gt;Output: n&lt;font face=&quot;Consolas, Courier New, monospace&quot;&gt;&lt;span style=&quot;white-space: pre;&quot;&gt; =&lt;/span&gt;&lt;/font&gt;&lt;/font&gt;&lt;/p&gt;" style="shape=parallelogram;perimeter=parallelogramPerimeter;whiteSpace=wrap;html=1;fixedSize=1;" vertex="1" parent="WIyWlLk6GJQsqaUBKTNV-1">
          <mxGeometry x="338.75" y="590" width="122.5" height="60" as="geometry" />
        </mxCell>
        <mxCell id="kpIJQVEtNBtJuz8SWJLa-36" value="" style="edgeStyle=orthogonalEdgeStyle;rounded=0;orthogonalLoop=1;jettySize=auto;html=1;" edge="1" parent="WIyWlLk6GJQsqaUBKTNV-1" source="kpIJQVEtNBtJuz8SWJLa-31" target="kpIJQVEtNBtJuz8SWJLa-34">
          <mxGeometry relative="1" as="geometry" />
        </mxCell>
        <mxCell id="kpIJQVEtNBtJuz8SWJLa-31" value="&lt;p&gt;Input: n&lt;/p&gt;" style="shape=parallelogram;perimeter=parallelogramPerimeter;whiteSpace=wrap;html=1;fixedSize=1;" vertex="1" parent="WIyWlLk6GJQsqaUBKTNV-1">
          <mxGeometry x="340" y="690" width="120" height="60" as="geometry" />
        </mxCell>
        <mxCell id="kpIJQVEtNBtJuz8SWJLa-37" value="" style="edgeStyle=orthogonalEdgeStyle;rounded=0;orthogonalLoop=1;jettySize=auto;html=1;" edge="1" parent="WIyWlLk6GJQsqaUBKTNV-1" source="kpIJQVEtNBtJuz8SWJLa-34" target="kpIJQVEtNBtJuz8SWJLa-35">
          <mxGeometry relative="1" as="geometry" />
        </mxCell>
        <mxCell id="kpIJQVEtNBtJuz8SWJLa-34" value="&lt;div style=&quot;line-height: 22px; white-space: pre;&quot;&gt;&lt;font style=&quot;font-size: 12px;&quot; face=&quot;Helvetica&quot;&gt;++n*++m&lt;/font&gt;&lt;/div&gt;" style="rounded=1;whiteSpace=wrap;html=1;" vertex="1" parent="WIyWlLk6GJQsqaUBKTNV-1">
          <mxGeometry x="339" y="790" width="120" height="60" as="geometry" />
        </mxCell>
        <mxCell id="kpIJQVEtNBtJuz8SWJLa-41" value="" style="edgeStyle=orthogonalEdgeStyle;rounded=0;orthogonalLoop=1;jettySize=auto;html=1;" edge="1" parent="WIyWlLk6GJQsqaUBKTNV-1" source="kpIJQVEtNBtJuz8SWJLa-35" target="kpIJQVEtNBtJuz8SWJLa-39">
          <mxGeometry relative="1" as="geometry" />
        </mxCell>
        <mxCell id="kpIJQVEtNBtJuz8SWJLa-35" value="Output: ++n*++m&lt;div&gt;Explanation&lt;/div&gt;" style="shape=parallelogram;perimeter=parallelogramPerimeter;whiteSpace=wrap;html=1;fixedSize=1;" vertex="1" parent="WIyWlLk6GJQsqaUBKTNV-1">
          <mxGeometry x="315" y="890" width="170" height="60" as="geometry" />
        </mxCell>
        <mxCell id="kpIJQVEtNBtJuz8SWJLa-58" style="edgeStyle=orthogonalEdgeStyle;rounded=0;orthogonalLoop=1;jettySize=auto;html=1;entryX=0.5;entryY=0;entryDx=0;entryDy=0;" edge="1" parent="WIyWlLk6GJQsqaUBKTNV-1" source="kpIJQVEtNBtJuz8SWJLa-39" target="kpIJQVEtNBtJuz8SWJLa-47">
          <mxGeometry relative="1" as="geometry">
            <Array as="points">
              <mxPoint x="520" y="1020" />
              <mxPoint x="520" y="420" />
              <mxPoint x="759" y="420" />
            </Array>
          </mxGeometry>
        </mxCell>
        <mxCell id="kpIJQVEtNBtJuz8SWJLa-39" value="&lt;div style=&quot;line-height: 22px; white-space: pre;&quot;&gt;n--&lt;/div&gt;&lt;div style=&quot;line-height: 22px; white-space: pre;&quot;&gt;m--&lt;/div&gt;" style="rounded=1;whiteSpace=wrap;html=1;" vertex="1" parent="WIyWlLk6GJQsqaUBKTNV-1">
          <mxGeometry x="339" y="990" width="120" height="60" as="geometry" />
        </mxCell>
        <mxCell id="kpIJQVEtNBtJuz8SWJLa-42" value="" style="edgeStyle=orthogonalEdgeStyle;rounded=0;orthogonalLoop=1;jettySize=auto;html=1;exitX=0.5;exitY=1;exitDx=0;exitDy=0;entryX=0.5;entryY=0;entryDx=0;entryDy=0;" edge="1" parent="WIyWlLk6GJQsqaUBKTNV-1" source="kpIJQVEtNBtJuz8SWJLa-52" target="kpIJQVEtNBtJuz8SWJLa-49">
          <mxGeometry relative="1" as="geometry">
            <mxPoint x="644" y="610" as="sourcePoint" />
          </mxGeometry>
        </mxCell>
        <mxCell id="kpIJQVEtNBtJuz8SWJLa-57" style="edgeStyle=orthogonalEdgeStyle;rounded=0;orthogonalLoop=1;jettySize=auto;html=1;exitX=0.5;exitY=1;exitDx=0;exitDy=0;entryX=1;entryY=0.5;entryDx=0;entryDy=0;" edge="1" parent="WIyWlLk6GJQsqaUBKTNV-1" source="kpIJQVEtNBtJuz8SWJLa-45" target="kpIJQVEtNBtJuz8SWJLa-55">
          <mxGeometry relative="1" as="geometry" />
        </mxCell>
        <mxCell id="kpIJQVEtNBtJuz8SWJLa-45" value="Output: True&lt;div&gt;Explanation&lt;/div&gt;" style="shape=parallelogram;perimeter=parallelogramPerimeter;whiteSpace=wrap;html=1;fixedSize=1;" vertex="1" parent="WIyWlLk6GJQsqaUBKTNV-1">
          <mxGeometry x="800" y="570" width="170" height="60" as="geometry" />
        </mxCell>
        <mxCell id="kpIJQVEtNBtJuz8SWJLa-50" style="edgeStyle=orthogonalEdgeStyle;rounded=0;orthogonalLoop=1;jettySize=auto;html=1;entryX=0.5;entryY=0;entryDx=0;entryDy=0;exitX=0.5;exitY=1;exitDx=0;exitDy=0;" edge="1" parent="WIyWlLk6GJQsqaUBKTNV-1" source="kpIJQVEtNBtJuz8SWJLa-54" target="kpIJQVEtNBtJuz8SWJLa-45">
          <mxGeometry relative="1" as="geometry" />
        </mxCell>
        <mxCell id="kpIJQVEtNBtJuz8SWJLa-47" value="if (m++&amp;lt;n)" style="rhombus;whiteSpace=wrap;html=1;" vertex="1" parent="WIyWlLk6GJQsqaUBKTNV-1">
          <mxGeometry x="691" y="440" width="136" height="80" as="geometry" />
        </mxCell>
        <mxCell id="kpIJQVEtNBtJuz8SWJLa-56" style="edgeStyle=orthogonalEdgeStyle;rounded=0;orthogonalLoop=1;jettySize=auto;html=1;entryX=0;entryY=0.5;entryDx=0;entryDy=0;" edge="1" parent="WIyWlLk6GJQsqaUBKTNV-1" source="kpIJQVEtNBtJuz8SWJLa-49" target="kpIJQVEtNBtJuz8SWJLa-55">
          <mxGeometry relative="1" as="geometry" />
        </mxCell>
        <mxCell id="kpIJQVEtNBtJuz8SWJLa-49" value="Output: True&lt;div&gt;Explanation&lt;/div&gt;" style="shape=parallelogram;perimeter=parallelogramPerimeter;whiteSpace=wrap;html=1;fixedSize=1;" vertex="1" parent="WIyWlLk6GJQsqaUBKTNV-1">
          <mxGeometry x="570" y="570" width="170" height="60" as="geometry" />
        </mxCell>
        <mxCell id="kpIJQVEtNBtJuz8SWJLa-51" value="" style="edgeStyle=orthogonalEdgeStyle;rounded=0;orthogonalLoop=1;jettySize=auto;html=1;exitX=0;exitY=0.5;exitDx=0;exitDy=0;entryX=0.5;entryY=0;entryDx=0;entryDy=0;endArrow=none;endFill=0;" edge="1" parent="WIyWlLk6GJQsqaUBKTNV-1" source="kpIJQVEtNBtJuz8SWJLa-47" target="kpIJQVEtNBtJuz8SWJLa-52">
          <mxGeometry relative="1" as="geometry">
            <mxPoint x="691" y="480" as="sourcePoint" />
            <mxPoint x="654" y="570" as="targetPoint" />
          </mxGeometry>
        </mxCell>
        <mxCell id="kpIJQVEtNBtJuz8SWJLa-52" value="True" style="text;html=1;align=center;verticalAlign=middle;whiteSpace=wrap;rounded=0;" vertex="1" parent="WIyWlLk6GJQsqaUBKTNV-1">
          <mxGeometry x="630" y="505" width="50" height="25" as="geometry" />
        </mxCell>
        <mxCell id="kpIJQVEtNBtJuz8SWJLa-53" value="" style="edgeStyle=orthogonalEdgeStyle;rounded=0;orthogonalLoop=1;jettySize=auto;html=1;entryX=0.5;entryY=0;entryDx=0;entryDy=0;exitX=1;exitY=0.5;exitDx=0;exitDy=0;" edge="1" parent="WIyWlLk6GJQsqaUBKTNV-1" source="kpIJQVEtNBtJuz8SWJLa-47" target="kpIJQVEtNBtJuz8SWJLa-54">
          <mxGeometry relative="1" as="geometry">
            <mxPoint x="827" y="480" as="sourcePoint" />
            <mxPoint x="885" y="570" as="targetPoint" />
          </mxGeometry>
        </mxCell>
        <mxCell id="kpIJQVEtNBtJuz8SWJLa-54" value="False" style="text;html=1;align=center;verticalAlign=middle;whiteSpace=wrap;rounded=0;" vertex="1" parent="WIyWlLk6GJQsqaUBKTNV-1">
          <mxGeometry x="865" y="505" width="40" height="25" as="geometry" />
        </mxCell>
        <mxCell id="kpIJQVEtNBtJuz8SWJLa-71" value="" style="edgeStyle=orthogonalEdgeStyle;rounded=0;orthogonalLoop=1;jettySize=auto;html=1;" edge="1" parent="WIyWlLk6GJQsqaUBKTNV-1" source="kpIJQVEtNBtJuz8SWJLa-55" target="kpIJQVEtNBtJuz8SWJLa-63">
          <mxGeometry relative="1" as="geometry" />
        </mxCell>
        <mxCell id="kpIJQVEtNBtJuz8SWJLa-55" value="&lt;div style=&quot;line-height: 22px; white-space: pre;&quot;&gt;&lt;span style=&quot;background-color: initial;&quot;&gt;m--&lt;/span&gt;&lt;br&gt;&lt;/div&gt;" style="rounded=1;whiteSpace=wrap;html=1;" vertex="1" parent="WIyWlLk6GJQsqaUBKTNV-1">
          <mxGeometry x="699" y="680" width="120" height="60" as="geometry" />
        </mxCell>
        <mxCell id="kpIJQVEtNBtJuz8SWJLa-59" value="" style="edgeStyle=orthogonalEdgeStyle;rounded=0;orthogonalLoop=1;jettySize=auto;html=1;exitX=0.5;exitY=1;exitDx=0;exitDy=0;entryX=0.5;entryY=0;entryDx=0;entryDy=0;" edge="1" parent="WIyWlLk6GJQsqaUBKTNV-1" source="kpIJQVEtNBtJuz8SWJLa-67" target="kpIJQVEtNBtJuz8SWJLa-65">
          <mxGeometry relative="1" as="geometry">
            <mxPoint x="644" y="960" as="sourcePoint" />
          </mxGeometry>
        </mxCell>
        <mxCell id="kpIJQVEtNBtJuz8SWJLa-60" style="edgeStyle=orthogonalEdgeStyle;rounded=0;orthogonalLoop=1;jettySize=auto;html=1;exitX=0.5;exitY=1;exitDx=0;exitDy=0;entryX=1;entryY=0.5;entryDx=0;entryDy=0;" edge="1" parent="WIyWlLk6GJQsqaUBKTNV-1" source="kpIJQVEtNBtJuz8SWJLa-61" target="kpIJQVEtNBtJuz8SWJLa-70">
          <mxGeometry relative="1" as="geometry" />
        </mxCell>
        <mxCell id="kpIJQVEtNBtJuz8SWJLa-61" value="Output: True&lt;div&gt;Explanation&lt;/div&gt;" style="shape=parallelogram;perimeter=parallelogramPerimeter;whiteSpace=wrap;html=1;fixedSize=1;" vertex="1" parent="WIyWlLk6GJQsqaUBKTNV-1">
          <mxGeometry x="800" y="920" width="170" height="60" as="geometry" />
        </mxCell>
        <mxCell id="kpIJQVEtNBtJuz8SWJLa-62" style="edgeStyle=orthogonalEdgeStyle;rounded=0;orthogonalLoop=1;jettySize=auto;html=1;entryX=0.5;entryY=0;entryDx=0;entryDy=0;exitX=0.5;exitY=1;exitDx=0;exitDy=0;" edge="1" parent="WIyWlLk6GJQsqaUBKTNV-1" source="kpIJQVEtNBtJuz8SWJLa-69" target="kpIJQVEtNBtJuz8SWJLa-61">
          <mxGeometry relative="1" as="geometry" />
        </mxCell>
        <mxCell id="kpIJQVEtNBtJuz8SWJLa-63" value="if (n++&amp;gt;m)" style="rhombus;whiteSpace=wrap;html=1;" vertex="1" parent="WIyWlLk6GJQsqaUBKTNV-1">
          <mxGeometry x="691" y="790" width="136" height="80" as="geometry" />
        </mxCell>
        <mxCell id="kpIJQVEtNBtJuz8SWJLa-64" style="edgeStyle=orthogonalEdgeStyle;rounded=0;orthogonalLoop=1;jettySize=auto;html=1;entryX=0;entryY=0.5;entryDx=0;entryDy=0;" edge="1" parent="WIyWlLk6GJQsqaUBKTNV-1" source="kpIJQVEtNBtJuz8SWJLa-65" target="kpIJQVEtNBtJuz8SWJLa-70">
          <mxGeometry relative="1" as="geometry" />
        </mxCell>
        <mxCell id="kpIJQVEtNBtJuz8SWJLa-65" value="Output: True&lt;div&gt;Explanation&lt;/div&gt;" style="shape=parallelogram;perimeter=parallelogramPerimeter;whiteSpace=wrap;html=1;fixedSize=1;" vertex="1" parent="WIyWlLk6GJQsqaUBKTNV-1">
          <mxGeometry x="570" y="920" width="170" height="60" as="geometry" />
        </mxCell>
        <mxCell id="kpIJQVEtNBtJuz8SWJLa-66" value="" style="edgeStyle=orthogonalEdgeStyle;rounded=0;orthogonalLoop=1;jettySize=auto;html=1;exitX=0;exitY=0.5;exitDx=0;exitDy=0;entryX=0.5;entryY=0;entryDx=0;entryDy=0;endArrow=none;endFill=0;" edge="1" parent="WIyWlLk6GJQsqaUBKTNV-1" source="kpIJQVEtNBtJuz8SWJLa-63" target="kpIJQVEtNBtJuz8SWJLa-67">
          <mxGeometry relative="1" as="geometry">
            <mxPoint x="691" y="830" as="sourcePoint" />
            <mxPoint x="654" y="920" as="targetPoint" />
          </mxGeometry>
        </mxCell>
        <mxCell id="kpIJQVEtNBtJuz8SWJLa-67" value="True" style="text;html=1;align=center;verticalAlign=middle;whiteSpace=wrap;rounded=0;" vertex="1" parent="WIyWlLk6GJQsqaUBKTNV-1">
          <mxGeometry x="630" y="855" width="50" height="25" as="geometry" />
        </mxCell>
        <mxCell id="kpIJQVEtNBtJuz8SWJLa-68" value="" style="edgeStyle=orthogonalEdgeStyle;rounded=0;orthogonalLoop=1;jettySize=auto;html=1;entryX=0.5;entryY=0;entryDx=0;entryDy=0;exitX=1;exitY=0.5;exitDx=0;exitDy=0;" edge="1" parent="WIyWlLk6GJQsqaUBKTNV-1" source="kpIJQVEtNBtJuz8SWJLa-63" target="kpIJQVEtNBtJuz8SWJLa-69">
          <mxGeometry relative="1" as="geometry">
            <mxPoint x="827" y="830" as="sourcePoint" />
            <mxPoint x="885" y="920" as="targetPoint" />
          </mxGeometry>
        </mxCell>
        <mxCell id="kpIJQVEtNBtJuz8SWJLa-69" value="False" style="text;html=1;align=center;verticalAlign=middle;whiteSpace=wrap;rounded=0;" vertex="1" parent="WIyWlLk6GJQsqaUBKTNV-1">
          <mxGeometry x="865" y="855" width="40" height="25" as="geometry" />
        </mxCell>
        <mxCell id="kpIJQVEtNBtJuz8SWJLa-73" style="edgeStyle=orthogonalEdgeStyle;rounded=0;orthogonalLoop=1;jettySize=auto;html=1;entryX=0.5;entryY=0;entryDx=0;entryDy=0;exitX=0.5;exitY=1;exitDx=0;exitDy=0;" edge="1" parent="WIyWlLk6GJQsqaUBKTNV-1" source="kpIJQVEtNBtJuz8SWJLa-70" target="kpIJQVEtNBtJuz8SWJLa-72">
          <mxGeometry relative="1" as="geometry" />
        </mxCell>
        <mxCell id="kpIJQVEtNBtJuz8SWJLa-70" value="&lt;div style=&quot;line-height: 22px; white-space: pre;&quot;&gt;&lt;span style=&quot;background-color: initial;&quot;&gt;n--&lt;/span&gt;&lt;br&gt;&lt;/div&gt;" style="rounded=1;whiteSpace=wrap;html=1;" vertex="1" parent="WIyWlLk6GJQsqaUBKTNV-1">
          <mxGeometry x="699" y="1030" width="120" height="60" as="geometry" />
        </mxCell>
        <mxCell id="kpIJQVEtNBtJuz8SWJLa-72" value="Кінець" style="ellipse;whiteSpace=wrap;html=1;" vertex="1" parent="WIyWlLk6GJQsqaUBKTNV-1">
          <mxGeometry x="500" y="1160" width="120" height="80" as="geometry" />
        </mxCell>
      </root>
    </mxGraphModel>
  </diagram>
</mxfile>
